<?xml version="1.0" encoding="utf-8"?>
<!-- Svg Vector Icons : http://www.onlinewebfonts.com/icon -->
<!DOCTYPE svg PUBLIC "-//W3C//DTD SVG 1.1//EN" "http://www.w3.org/Graphics/SVG/1.1/DTD/svg11.dtd">
<svg version="1.1" xmlns="http://www.w3.org/2000/svg" xmlns:xlink="http://www.w3.org/1999/xlink" x="0px" y="0px" viewBox="0 0 1000 1000" enable-background="new 0 0 1000 1000" xml:space="preserve">
<metadata> Svg Vector Icons : http://www.onlinewebfonts.com/icon </metadata>
<g><g><path d="M886.4,804l0,59.8H202.5l542.6-542.6c-1,133.7-0.7,300.7,73,370.5C901.8,771,886.4,804,886.4,804L886.4,804z M112.5,859.8L809.3,163l23.2,23.2L135.7,883L112.5,859.8L112.5,859.8z M233,691.7c83.7-79.3,72.7-284.2,72.7-423c0-138.8,194.9-141.7,194.9-141.7h6.7c0,0.1,0-1,0-22.5c0-13.9-46.5-64.1-46.5-64.1L460.1,10h131.4l-0.9,31.5c0,0-50.4,50.2-50.4,64.9c0,14.3,0,19.1,0,20.5h10.4c0,0,124.6,2.1,174.4,73.9L203.6,722.2C211.8,712.9,221.2,702.8,233,691.7L233,691.7z M607.9,895.5c0,45.4-36.8,94.5-82.1,94.5c-45.4,0-82.2-49.1-82.2-94.5C443.6,896.5,607.9,894.5,607.9,895.5z"/></g></g>
</svg>