<svg xmlns="http://www.w3.org/2000/svg" xmlns:xlink="http://www.w3.org/1999/xlink" x="0" y="0" enable-background="new 0 0 1000 1000" version="1.1" viewBox="0 0 1000 1000" xml:space="preserve"><metadata>Svg Vector Icons : http://www.onlinewebfonts.com/icon</metadata><g><path d="M479.8,807.9c0.8,1.2,1.7,2.3,2.8,3.4c1.1,1.1,2.2,2,3.4,2.8c0.1,0.1,0.2,0.2,0.4,0.3c0.1,0.1,0.2,0.1,0.3,0.2c3.8,2.5,8.4,4,13.3,4c4.9,0,9.5-1.5,13.3-4c0.1-0.1,0.2-0.1,0.3-0.2c0.1-0.1,0.2-0.2,0.4-0.3c1.2-0.8,2.3-1.7,3.4-2.8c1.1-1.1,2-2.2,2.8-3.4l389-389c9.4-9.4,9.4-24.8,0-34.2c-9.4-9.5-24.8-9.5-34.2,0L524.5,735.1V59c0-13.5-11-24.5-24.5-24.5c-13.5,0-24.5,11-24.5,24.5v676.1L125,384.6c-9.5-9.5-24.8-9.5-34.2,0c-9.4,9.4-9.4,24.8,0,34.2L479.8,807.9z M965.5,916.5h-931C21,916.5,10,927.4,10,941c0,13.5,11,24.5,24.5,24.5h931c13.5,0,24.5-11,24.5-24.5C990,927.4,979,916.5,965.5,916.5z"/></g></svg>