<svg xmlns="http://www.w3.org/2000/svg" xmlns:xlink="http://www.w3.org/1999/xlink" x="0" y="0" fill="#14b1fa" enable-background="new 0 0 1000 1000" version="1.1" viewBox="0 0 1000 1000" xml:space="preserve"><metadata>Svg Vector Icons : http://www.onlinewebfonts.com/icon</metadata><g><g><path d="M4119,4938.9c-1468.4-262.4-2784-1241.3-3477.1-2584.3C46.7,1199.5-66.9-202.3,344.3-1431.8C912.1-3135.1,2400-4415.6,4158.1-4720.9c450.3-78.3,1233.5-78.3,1683.8,0c1495.8,258.4,2815.4,1229.5,3516.2,2588.2c595.2,1155.1,708.8,2556.9,297.6,3786.4C9087.9,3357,7600,4637.4,5841.9,4942.8C5403.3,5021.2,4549.7,5017.2,4119,4938.9z M4428.3,2323.3c168.4-82.2,258.4-246.7,258.4-473.8v-184l-516.9-524.7L3653,620h1985.2c2157.5,0,2161.4,0,2329.8-215.4c117.5-148.8,117.5-438.6,3.9-583.4C7795.8-402,7838.8-398.1,5657.8-398.1H3649.1l477.7-477.7c258.4-266.2,493.4-520.8,516.9-567.8c23.5-47,43.1-156.6,43.1-242.7c0-332.8-399.4-575.6-689.2-422.9C3934.9-2074,3445.5-1608,2909-1067.7L1934-88.8l19.6,219.3l19.6,223.2l935.8,939.8c513,516.8,990.7,975,1053.3,1014.1C4103.3,2397.7,4259.9,2401.6,4428.3,2323.3z" transform="translate(0.000000,511.000000) scale(0.100000,-0.100000)"/></g></g></svg>