<svg xmlns="http://www.w3.org/2000/svg" xmlns:xlink="http://www.w3.org/1999/xlink" x="0" y="0" enable-background="new 0 0 1000 1000" version="1.1" viewBox="0 0 1000 1000" xml:space="preserve"><metadata>Svg Vector Icons : http://www.onlinewebfonts.com/icon</metadata><g><g><path d="M948,430H52c-38.6,0-42,31.3-42,70c0,38.7,3.4,70,42,70h896c38.6,0,42-31.3,42-70C990,461.3,986.6,430,948,430z M948,710H52c-38.6,0-42,31.3-42,70s3.4,70,42,70h896c38.6,0,42-31.3,42-70S986.6,710,948,710z M52,290h896c38.6,0,42-31.3,42-70s-3.4-70-42-70H52c-38.6,0-42,31.3-42,70S13.4,290,52,290z"/></g></g></svg>