<svg xmlns="http://www.w3.org/2000/svg" xmlns:xlink="http://www.w3.org/1999/xlink" x="0" y="0" enable-background="new 0 0 1000 1000" version="1.1" viewBox="0 0 1000 1000" xml:space="preserve"><metadata>Svg Vector Icons : http://www.onlinewebfonts.com/icon</metadata><g><path d="M982,945.4L708.6,672c97-109.8,129.8-269,71.2-414.1C697.1,53.3,464.4-45.4,259.8,37.2C55.3,119.8-43.4,352.5,39.2,557c82.6,204.6,315.4,303.3,519.9,220.7c0,0,6-2.6,3.6-1.6l0-0.1c13.6-5.8,20.2-21.4,14.7-35.3c-5.6-13.8-21.1-20.5-35-15.2l-0.1-0.1c-0.1,0-0.2,0.1-0.3,0.1c-0.1,0-0.1,0-0.2,0c-0.1,0-0.2,0.1-0.3,0.2c-0.9,0.4-1.8,0.8-2.7,1.3c-176.5,71.3-377.4-14-448.8-190.5c-71.3-176.6,14-377.5,190.4-448.8c176.5-71.3,377.4,14,448.8,190.5c53.7,132.9,18.5,279.7-77.5,374.5l0.1,0.1c-0.1,0.1-0.3,0.1-0.5,0.3c-10.7,10.7-10.7,28,0,38.7L943.3,984c10.7,10.7,28,10.7,38.7,0S992.7,956,982,945.4z"/><path d="M655.6,407.4c0-15.1-12.3-27.3-27.4-27.3H190.5c-15.1,0-27.3,12.2-27.3,27.3c0,15.1,12.2,27.3,27.3,27.3h437.7C643.3,434.7,655.6,422.4,655.6,407.4z"/></g></svg>