<?xml version="1.0" encoding="utf-8"?>
<!-- Svg Vector Icons : http://www.onlinewebfonts.com/icon -->
<!DOCTYPE svg PUBLIC "-//W3C//DTD SVG 1.1//EN" "http://www.w3.org/Graphics/SVG/1.1/DTD/svg11.dtd">
<svg version="1.1" xmlns="http://www.w3.org/2000/svg" xmlns:xlink="http://www.w3.org/1999/xlink" x="0px" y="0px" viewBox="0 0 1000 1000" enable-background="new 0 0 1000 1000" xml:space="preserve">
<metadata> Svg Vector Icons : http://www.onlinewebfonts.com/icon </metadata>
<g><g transform="translate(0.000000,511.000000) scale(0.100000,-0.100000)"><path d="M4642.1,4802.1c-951.3-80.4-1604-591.4-1898.7-1489.1c-134-407.7-195.2-911.1-158.9-1307.3c82.3-888.1,396.2-1533.2,991.5-2044.2c105.3-88.1,204.8-178,223.9-199.1c70.8-78.5,112.9-204.8,124.4-363.7c7.7-147.4,5.7-164.6-53.6-283.3c-34.4-68.9-107.2-181.8-164.6-250.7c-97.6-118.7-346.5-336.9-384.7-336.9c-17.2,0-354.1,530.2-380.9,599.1c-7.7,21.1,9.6,59.3,47.9,107.2c126.3,158.9,191.4,361.7,166.5,526.4c-24.9,160.8-32.5,160.8-283.3,1.9c-124.4-78.5-227.8-143.6-233.5-143.6c-3.8,0-32.5,38.3-63.2,86.1c-28.7,47.9-59.3,86.1-67,86.1c-7.7,0-126.3-70.8-264.1-155l-248.8-155l40.2-70.8c23-38.3,49.8-76.6,59.3-86.1c7.7-11.5,15.3-24.9,15.3-32.5c0-5.7-107.2-80.4-239.3-162.7c-225.9-141.7-237.3-151.2-212.5-189.5c63.2-95.7,266-181.8,430.7-181.8c47.9,0,139.7,13.4,202.9,26.8c63.2,15.3,116.8,26.8,116.8,24.9c17.2-19.1,371.3-599.1,371.3-608.7c0-7.7-252.7-139.7-560.8-292.8c-832.6-415.4-1194.4-643.1-1506.4-949.4c-264.1-258.4-413.4-488.1-516.8-794.3c-70.8-206.7-95.7-354.1-95.7-578v-178h4900h4900v179.9c0,516.8-199.1,962.8-612.5,1370.5c-308.2,304.3-658.4,524.5-1487.2,939.8c-319.7,158.9-580,294.7-580,300.5c0,11.5,352.2,591.5,371.3,610.6c0,1.9,53.6-9.6,116.7-24.9c63.2-13.4,155-26.8,202.9-26.8c164.6,0,367.5,86.1,430.7,181.8c24.9,38.3,13.4,47.9-212.5,189.5c-132.1,82.3-239.3,157-239.3,162.7c0,7.6,7.7,21,15.3,32.5c9.6,9.6,36.4,47.9,59.3,88L8007-519l-250.7,155c-137.8,86.1-256.5,155-264.1,155c-7.7,0-38.3-38.3-67-86.1c-30.6-47.9-59.3-86.1-63.2-86.1c-5.8,0-109.1,65.1-233.5,143.6c-250.8,158.9-258.4,158.9-283.3-1.9c-24.9-164.6,40.2-367.5,166.5-526.4c38.3-47.9,55.5-86.1,47.9-107.2c-30.6-76.6-365.6-599.1-384.7-599.1c-38.3,0-292.9,225.9-390.5,348.4c-53.6,65.1-122.5,172.3-156.9,241.2c-57.4,116.8-59.3,134-51.7,279.5c17.2,256.5,57.4,321.6,346.4,564.6c491.9,415.4,803.9,955.1,932.1,1621.2c68.9,361.7,88,625.9,61.3,911.1c-93.8,1003-463.2,1680.5-1117.8,2042.3c-179.9,97.6-488.1,201-723.5,239.3C5373.2,4809.7,4885.2,4823.1,4642.1,4802.1z M6267.1,2905.2c216.3-105.3,342.6-289,356-511.1c5.7-101.4,0-143.6-34.5-216.3c-57.4-122.5-218.2-264.1-407.7-357.9c-137.8-70.8-166.5-78.5-243.1-67c-111,17.2-193.3,59.3-344.5,181.8c-195.2,158.9-296.7,197.1-541.7,206.7c-292.9,11.5-396.2-19.1-658.4-199.1c-124.4-86.1-246.9-155-310.1-172.3l-101.5-30.6l-160.8,78.5c-187.6,93.8-352.2,235.4-407.7,356c-132.1,279.5,55.5,643.1,388.6,759.9c90,30.6,187.6,32.5,1226.9,28.7l1129.3-3.8L6267.1,2905.2z"/><path d="M1095.3,2537.7c-68.9-15.3-218.2-74.6-335-134c-641.2-323.5-892-867.1-394.3-857.5c68.9,1.9,168.4,15.3,218.2,32.5l91.9,26.8l47.9-74.6c30.6-47.9,55.5-70.8,70.8-63.2c53.6,32.5,482.3,300.5,490,306.3c3.8,3.8-11.5,34.4-34.5,70.8l-38.3,63.2l95.7,95.7c160.8,156.9,246.9,336.9,210.5,434.5C1476.2,2547.3,1313.5,2585.6,1095.3,2537.7z"/><path d="M8606.1,2545.4c-197.2-57.4-162.7-296.7,80.4-535.9l101.5-101.4l-38.3-63.2c-23-36.4-38.3-68.9-34.5-70.8c3.8-3.8,103.4-65.1,218.2-135.9c116.7-72.7,229.7-141.6,252.7-157c38.3-26.8,44-23,90,49.8c44,70.8,53.6,76.6,97.6,59.3c95.7-36.4,285.2-55.5,363.7-38.3c90,21.1,162.7,95.7,162.7,170.4c0,86.1-95.7,252.7-218.2,375.2c-201,199.1-488.1,363.7-752.2,430.7C8772.6,2568.4,8699.9,2572.2,8606.1,2545.4z"/><path d="M1162.3,1425.7c-126.3-78.5-237.3-151.2-246.9-160.8s32.5-97.6,103.4-208.6l118.7-193.3l70.8,42.1c352.2,214.4,442.1,275.6,434.5,294.8c-19.1,49.8-225.9,371.3-237.3,371.3C1397.7,1569.2,1288.6,1504.1,1162.3,1425.7z"/><path d="M8474,1397c-59.3-95.7-111-183.8-116.7-197.1c-5.8-17.2,101.4-91.9,434.5-294.8l70.8-42.1l118.7,193.3c101.4,160.8,116.7,197.1,93.8,216.3c-32.5,28.7-468.9,298.6-482.4,298.6C8587,1571.1,8533.3,1492.7,8474,1397z"/><path d="M1526,832.3c-126.3-80.4-237.3-151.2-245-158.9c-9.6-9.6,38.3-103.4,103.4-210.5l116.8-193.3l70.8,44c321.6,195.2,442.1,271.8,442.1,285.2c0,23-222,367.5-241.2,371.3C1763.3,973.9,1652.3,910.8,1526,832.3z"/><path d="M8202.2,954.8c-34.5-44-216.3-342.6-216.3-356c0-11.5,153.1-111,442.1-285.2l70.8-44L8615.7,461c63.2,105.3,116.7,195.2,116.7,201c0,7.7-490,315.8-503.4,315.8C8223.3,977.8,8211.8,966.3,8202.2,954.8z"/><path d="M1880.1,231.3C1748,149,1640.8,74.3,1640.8,64.8c0-7.6,51.7-99.5,114.8-201c105.3-172.3,116.8-183.7,153.1-162.7c21.1,13.4,135.9,84.2,254.6,157C2280.1-67.3,2377.7-0.3,2377.7,7.3c0,32.5-220.1,375.2-239.3,375.2C2128.9,382.5,2012.1,313.6,1880.1,231.3z"/><path d="M7733.3,204.5c-61.3-99.5-111-187.6-111-197.2c0-7.6,114.8-86.1,252.7-172.3l254.6-155l67,107.2c38.3,59.3,93.8,149.3,122.5,199.1l51.7,88l-250.7,155c-137.8,86.1-256.5,155-264.1,155C7848.1,382.5,7792.6,302.1,7733.3,204.5z"/></g></g>
</svg>