<svg xmlns="http://www.w3.org/2000/svg" xmlns:xlink="http://www.w3.org/1999/xlink" x="0" y="0" enable-background="new 0 0 1000 1000" version="1.1" viewBox="0 0 1000 1000" xml:space="preserve"><metadata>Svg Vector Icons : http://www.onlinewebfonts.com/icon</metadata><g><g><path d="M6517.5,3708.7c-353.9-37.6-693.9-132.5-1014.2-286.7l-181.9-87H2780.9c-1820.9,0-2554.4-5.9-2588-21.7c-27.7-11.9-59.3-43.5-71.2-71.2c-15.8-33.6-21.7-773-21.7-2603.8c0-2556.3,0-2556.3,41.5-2609.7l39.5-51.4H877h695.9l454.7-715.7c298.5-472.5,472.5-727.5,508.1-745.4c108.7-61.3,136.4-27.7,599,690c235.3,363.8,444.8,686,466.6,717.7l39.5,53.4h830.4h828.4l162.1-81c179.9-91,545.6-217.5,767.1-264.9c235.3-51.4,792.8-61.3,1055.8-19.8c1142.7,177.9,2083.8,966.8,2449.6,2046.2c359.8,1061.7,126.5,2202.4-626.7,3052.6c-140.4,160.1-419.1,395.4-608.9,518C7905.4,3607.9,7197.6,3779.9,6517.5,3708.7z M7227.3,3384.5c775-116.6,1463-553.6,1901.9-1206c282.7-421.1,435-893.6,454.7-1423.5c13.8-367.7-21.8-630.7-134.4-968.8c-144.3-433-338.1-745.4-670.2-1079.5c-415.2-417.2-842.2-648.5-1423.5-771.1c-268.9-57.3-729.5-61.3-1008.3-9.9C5202.8-1866.6,4309.1-971,4101.6,175.7c-45.5,247.1-45.5,697.9-2,939.1c71.2,393.4,241.2,802.7,464.6,1123c61.3,87,203.6,253.1,318.3,367.7C5501.3,3224.4,6369.2,3513,7227.3,3384.5z M4635.4,2795.3c-417.2-429-672.2-899.6-810.6-1488.7c-51.4-217.5-55.4-266.9-57.3-650.4c0-363.8,5.9-440.9,45.5-618.8c144.3-646.5,446.8-1190.2,891.7-1611.3c77.1-73.2,140.4-136.4,140.4-142.4c0-5.9-302.5-9.9-674.2-9.9c-369.7,0-688-7.9-705.8-17.8c-17.8-9.9-219.5-308.4-448.8-662.3c-314.4-486.4-421.1-636.6-436.9-618.8c-11.9,13.8-197.7,302.5-413.2,642.5c-215.5,340.1-407.3,626.7-427,636.6c-19.8,11.9-302.5,19.8-678.1,19.8H416.3V646.3v2372.5h2216.3h2218.2L4635.4,2795.3z" transform="translate(0.000000,511.000000) scale(0.100000,-0.100000)"/><path d="M6742.9,2617.4c-100.8-51.4-98.8-29.7-92.9-1423.5l4-1302.9l57.3-49.4c69.2-57.3,158.2-51.4,215.5,15.8c31.6,39.5,33.6,132.4,33.6,1360.2c-2,1391.8,2,1352.3-92.9,1401.7C6814.1,2649,6804.2,2649,6742.9,2617.4z" transform="translate(0.000000,511.000000) scale(0.100000,-0.100000)"/><path d="M6742.9-921.5c-150.2-77.1-90.9-290.6,81.1-290.6c61.3,0,136.4,87,136.4,158.2c0,55.4-57.3,138.4-96.9,138.4c-9.9,0-29.7,4-45.5,9.9C6804.2-899.8,6770.6-907.7,6742.9-921.5z" transform="translate(0.000000,511.000000) scale(0.100000,-0.100000)"/></g></g></svg>