<?xml version="1.0" encoding="utf-8"?>
<!-- Svg Vector Icons : http://www.onlinewebfonts.com/icon -->
<!DOCTYPE svg PUBLIC "-//W3C//DTD SVG 1.1//EN" "http://www.w3.org/Graphics/SVG/1.1/DTD/svg11.dtd">
<svg version="1.1" xmlns="http://www.w3.org/2000/svg" xmlns:xlink="http://www.w3.org/1999/xlink" x="0px" y="0px" viewBox="0 0 1000 1000" enable-background="new 0 0 1000 1000" xml:space="preserve">
<metadata> Svg Vector Icons : http://www.onlinewebfonts.com/icon </metadata>
<g><path d="M635.3,392.4H85.8c-41.9,0-75.8,34-75.8,75.8v387.6c0,41.9,34,75.8,75.8,75.8h549.4c41.9,0,75.8-33.9,75.8-75.8V468.2C711.1,426.4,677.2,392.4,635.3,392.4L635.3,392.4z M391.1,716.9v68.3c0,18.1-14.6,32.7-32.7,32.7c-18.1,0-32.7-14.6-32.7-32.7l0-69.6c-35.7-14-61-48.5-61-89.1c0-53,43-95.9,95.9-95.9c53,0,95.9,42.9,95.9,95.9C456.5,668.6,429,704.1,391.1,716.9L391.1,716.9z M885.3,314.8V331H990v-16.3c0-135.8-110.5-246.3-246.3-246.3c-135.9,0-246.4,110.5-246.4,246.3V331H602v-16.3c0-78.1,63.6-141.7,141.7-141.7S885.3,236.6,885.3,314.8L885.3,314.8z"/></g>
</svg>