<?xml version="1.0" encoding="utf-8"?>
<!-- Svg Vector Icons : http://www.onlinewebfonts.com/icon -->
<!DOCTYPE svg PUBLIC "-//W3C//DTD SVG 1.1//EN" "http://www.w3.org/Graphics/SVG/1.1/DTD/svg11.dtd">
<svg version="1.1" xmlns="http://www.w3.org/2000/svg" xmlns:xlink="http://www.w3.org/1999/xlink" x="0px" y="0px" viewBox="0 0 1000 1000" enable-background="new 0 0 1000 1000" xml:space="preserve">
<metadata> Svg Vector Icons : http://www.onlinewebfonts.com/icon </metadata>
<g><g><g><path d="M980.5,565.5L762.6,347.6V203.9c0-17.9-14.5-32.4-32.4-32.4c-17.9,0-32.4,14.5-32.4,32.4v78.9L544,129c-12.7-12.7-33.2-12.7-45.9,0L297,330.2c-12.7,12.7-12.7,33.2,0,45.8c12.7,12.7,33.2,12.7,45.8,0l178.2-178.2l413.6,413.6c6.3,6.3,14.6,9.5,22.9,9.5s16.6-3.2,22.9-9.5C993.2,598.7,993.2,578.1,980.5,565.5z"/><path d="M887.8,602.7L544,259c-6.1-6.1-14.3-9.5-22.9-9.5c-8.6,0-16.8,3.4-22.9,9.5L366.1,391c87.4,43.6,150,129.5,160.8,231c26.7,5.3,46.7,28.9,46.7,56.8v123.2c0,19.7,7.4,38.6,20.9,53.1c14.8,16.1,35.8,25.2,57.5,25.2h167.8c43.2,0,78.4-35.1,78.4-78.4V634.4c0-4.9-0.5-9.9-1.5-14.8C895.4,613.1,892.3,607.3,887.8,602.7z"/><path d="M255.5,389.5C119.9,389.5,10,499.5,10,635c0,135.5,109.9,245.4,245.5,245.4c135.6,0,245.5-109.9,245.5-245.4C500.9,499.5,391,389.5,255.5,389.5z M335.9,675.5H175.1c-22.4,0-40.5-18.1-40.5-40.5c0-22.4,18.1-40.5,40.5-40.5h160.8c22.4,0,40.5,18.1,40.5,40.5C376.4,657.4,358.2,675.5,335.9,675.5z"/></g></g><g></g><g></g><g></g><g></g><g></g><g></g><g></g><g></g><g></g><g></g><g></g><g></g><g></g><g></g><g></g></g>
</svg>