<svg xmlns="http://www.w3.org/2000/svg" xmlns:xlink="http://www.w3.org/1999/xlink" x="0" y="0" enable-background="new 0 0 1000 1000" version="1.1" viewBox="0 0 1000 1000" xml:space="preserve"><metadata>Svg Vector Icons : http://www.onlinewebfonts.com/icon</metadata><g><g><path d="M100,1688.3v-294L1329.8,349C2006.2-225.6,2559.6-698.3,2559.6-704c0-5.8-32.7,11.5-71.1,34.6C2171.4-477.3,272.9,700.6,142.3,785.2L100,812.1v-2836.2v-2836.2h4900h4900v2836.2V812.1l-46.1-30.7C9521.4,564.2,7432.7-717.5,7448.1-694.4c3.8,7.7,559.2,482.3,1229.8,1053L9900,1394.3v294v292.1H5000H100V1688.3z M5399.7,1231c515-144.1,908.9-536.1,1062.6-1060.7c38.4-126.8,42.3-196,50-711l9.6-572.6h-290.2h-290.2V-608c0,549.6-13.4,645.6-109.5,826.3c-247.9,455.4-824.3,626.4-1281.7,382.4c-124.9-65.3-315.1-255.6-380.5-380.5c-98-184.5-111.4-278.6-111.4-828.2v-505.4h-288.2H3482V-608c1.9,553.4,19.2,707.1,105.7,926.2c197.9,499.6,634.1,851.3,1177.9,951.2C4909.7,1296.3,5242.1,1275.2,5399.7,1231z M6844.7-2698.6v-1335.5H5000H3155.3v1335.5v1335.5H5000h1844.7V-2698.6z" transform="translate(0.000000,356.000000) scale(0.100000,-0.100000)"/><path d="M4827.1-1981.9c-190.2-130.7-222.9-355.5-73-526.5l59.6-67.3l-30.7-330.5c-19.2-182.5-32.7-349.7-32.7-372.8c0-44.2,3.8-44.2,249.8-44.2h249.8v53.8c-1.9,28.8-17.3,196-34.6,370.9l-34.6,320.9l61.5,67.3c113.4,123,128.8,288.2,40.4,417c-71.1,105.7-136.4,142.2-269,149.9C4911.6-1937.7,4884.7-1943.5,4827.1-1981.9z" transform="translate(0.000000,356.000000) scale(0.100000,-0.100000)"/></g></g></svg>