<?xml version="1.0" encoding="utf-8"?>
<!-- Svg Vector Icons : http://www.onlinewebfonts.com/icon -->
<!DOCTYPE svg PUBLIC "-//W3C//DTD SVG 1.1//EN" "http://www.w3.org/Graphics/SVG/1.1/DTD/svg11.dtd">
<svg version="1.1" xmlns="http://www.w3.org/2000/svg" xmlns:xlink="http://www.w3.org/1999/xlink" x="0px" y="0px" viewBox="0 0 1000 1000" enable-background="new 0 0 1000 1000" xml:space="preserve">
<metadata> Svg Vector Icons : http://www.onlinewebfonts.com/icon </metadata>
<g><g transform="translate(0.000000,492.000000) scale(0.100000,-0.100000)"><path d="M4608.9,4805.2c-756-57.8-1536-315.2-2196.2-724.1C723.2,3035.8-170.5,1043.1,172.6-917.8c353.1-2038.6,1950.9-3636.4,3989.5-3989.5c1960.8-343.1,3953.6,550.5,4998.8,2240.1c985.4,1589.8,985.4,3584.6,0,5174.4C8199.5,4059.1,6442.1,4946.8,4608.9,4805.2z M5474.6,4386.3c1031.3-111.7,1960.8-558.5,2696.9-1294.6C9029.3,2235.9,9488.1,1128.8,9488.1-80c0-1208.8-458.8-2315.9-1316.5-3171.7c-855.8-857.7-1962.8-1316.5-3171.6-1316.5c-1208.8,0-2315.9,458.8-3171.6,1316.5C970.5-2395.9,511.7-1288.8,511.7-80c0,1208.8,458.8,2315.9,1316.5,3171.7c724.1,726.1,1659.6,1180.9,2663,1292.6C4718.6,4410.2,5247.3,4412.2,5474.6,4386.3z"/><path d="M3134.8,1096.9c-209.4-81.8-367-309.2-373-532.6c-16-562.5,634.3-853.7,1035.3-460.8c289.2,283.3,207.5,787.9-159.6,977.4C3515.8,1142.8,3270.5,1150.8,3134.8,1096.9z"/><path d="M6430.1,1108.9c-245.4-87.8-400.9-313.2-398.9-580.5c0-175.5,55.8-311.2,171.5-424.9c217.4-213.4,558.5-237.4,795.9-57.9c464.8,355.1,215.4,1095.1-369,1091.1C6561.8,1134.8,6472,1122.8,6430.1,1108.9z"/><path d="M6904.9-279.5c-31.9-8-494.7-231.4-1027.3-498.7c-823.8-412.9-971.4-478.7-1003.3-458.8c-67.8,41.9-1972.8,678.2-2032.7,678.2c-65.8,0-133.6-31.9-169.6-77.8c-33.9-43.9-365-1037.3-365-1093.1c0-63.8,35.9-133.7,85.8-165.6c23.9-16,197.5-79.8,383-141.6l339.1-111.7l-319.2-159.6c-175.5-89.8-341.1-185.5-369-215.4c-89.8-95.7-73.8-153.6,187.5-668.2c129.7-257.3,255.3-488.7,281.3-514.6c25.9-27.9,75.8-51.9,121.7-57.9c71.8-10,163.6,33.9,1055.2,476.7l975.4,488.7L6097-3147.9c1117.1-373,1111.1-371,1204.8-275.3c67.8,65.8,402.9,1079.2,383,1157c-25.9,105.7-91.7,141.6-432.8,251.3c-179.5,55.8-333.1,109.7-341.1,117.7c-8,8,129.7,85.8,305.2,171.5c175.6,87.8,337.1,177.5,359.1,201.5c22,23.9,43.9,73.8,49.9,111.7c10,61.8-17.9,131.6-231.4,546.5C7102.4-295.4,7058.5-241.6,6904.9-279.5z M7026.6-1043.4l127.7-253.3l-2006.7-997.4c-1105.1-548.6-2010.7-997.4-2014.7-997.4c-16,0-287.2,548.6-273.3,554.5c8,4,913.6,452.8,2010.7,999.4C6174.8-1089.3,6871-752.2,6880.9-766.2C6888.9-778.1,6954.8-901.8,7026.6-1043.4z M3665.4-1248.9c377-127.7,698.2-239.4,714.1-247.4c19.9-10-87.8-73.8-349.1-205.4l-381-191.5l-436.8,141.6c-239.4,77.8-438.8,143.6-440.8,145.6c-4,2,33.9,123.7,83.8,271.3c107.7,321.2,105.7,317.2,117.7,317.2C2977.2-1017.5,3288.4-1121.2,3665.4-1248.9z M6813.1-2302.1c225.4-71.8,410.9-135.6,414.9-137.6c2-4-37.9-135.6-91.8-295.2c-65.8-199.5-103.7-285.3-123.7-283.3c-16,4-347.1,111.7-736.1,241.4l-708.1,237.4l379,191.5c217.4,111.7,397,189.5,418.9,185.5C6388.2-2166.5,6589.7-2230.3,6813.1-2302.1z"/></g></g>
</svg>