<?xml version="1.0" encoding="utf-8"?>
<!-- Svg Vector Icons : http://www.onlinewebfonts.com/icon -->
<!DOCTYPE svg PUBLIC "-//W3C//DTD SVG 1.1//EN" "http://www.w3.org/Graphics/SVG/1.1/DTD/svg11.dtd">
<svg version="1.1" xmlns="http://www.w3.org/2000/svg" xmlns:xlink="http://www.w3.org/1999/xlink" x="0px" y="0px" viewBox="0 0 1000 1000" enable-background="new 0 0 1000 1000" xml:space="preserve">
<metadata> Svg Vector Icons : http://www.onlinewebfonts.com/icon </metadata>
<g><path d="M531.1,785.7c6.4,5.3,12.8,10.7,19.2,16.1c23.1-10.3,47.6-17.1,70.2-28.3c-22.8-20-43.1-43.4-68.6-60.2C545.6,737.7,538.7,761.8,531.1,785.7z"/><path d="M728.7,519.9c23.5,21.8,47.4,43.4,70.9,65.1c5.3-5.6,10.6-11.1,15.9-16.7c-24.3-21.9-48-44.6-72.5-66.3C738.3,508.1,733.4,514,728.7,519.9z"/><path d="M877,33.7c-21.4-18.6-50.6-23.2-78-23.7c-199.9,0.2-399.8,0-599.7,0C166,9.9,130.6,20.8,110,48.4c-16.4,18.4-19.6,43.4-23.6,66.7v771.1c4.4,29,12.9,59.9,37.2,78.6c22.9,20.6,55,24.2,84.5,25c191.1,0,382.2-0.2,573.3,0.1c32.6,0,68.7-1.9,94.9-24c26.3-19.9,36.9-53.7,37.2-85.5c0.1-253.5,0-507,0-760.4C913.5,88,903.2,54,877,33.7z M257.5,196.4c10.9-1.6,22-0.9,33-1c129.1,0.3,258.2-0.3,387.2,0.3c14-1.1,23.8,17.3,15.8,28.5c-4.7,8.9-15.9,9.7-24.8,9.8c-131.9,0-263.7-0.1-395.6,0c-8.2-0.3-18.3-0.2-23.9-7.4C240.6,217.7,245.2,199.6,257.5,196.4z M677.5,314.8c-134.7,0.7-269.4-0.1-404.2,0.4c-8.9-0.3-18.1-0.2-25.7-8.5c-7-9.5-2.3-27.7,13.5-29c13.4-0.1,265.6,0.8,402.8,0c9.2,1,21.2-2.2,27.6,6.4C702.4,294.8,693,316.5,677.5,314.8z M425.3,632.4c-7.9,7.9-17.3,7.9-26,8.2c-42.1,0-84.2,0-126.3,0c-8.6-0.6-18.1,0.1-24.7-8.2c-7-9.1-4.4-19.5,2.1-26.3c3.6-2.2,10.2-4.5,22.8-4.5c36-0.1,102.7,0,126.1,0c0,0,14.3-0.7,22.8,3.5C433.4,612.9,432.8,624.2,425.3,632.4z M458.1,478.7c-68.8,0.2-115.8-0.1-184.5,0.2c-8.9-0.3-20.2,1.1-25.5-8c-8.9-12.1,1-31.2,16.4-29.9c63.6-1,127.4,0.1,191-0.5c11.4,0,27.7,4,28.2,18.8C483.2,473,466.6,478.5,458.1,478.7z M273.6,396.9c-7.6-0.9-17.5,1.3-23.2-5.3c-11-9.5-5-30.8,10-32c15.7-1.3,31.7-1,47.6-1.2c118.9,0,237.7,0.1,356.5-0.1c10,0.7,23.9-0.7,28.9,10.2c6.8,9.3,1,23.2-9.3,26.8c-13.8,2.5-27.9,1.2-41.9,1.4C519.4,396.8,396.5,396.8,273.6,396.9z M824.1,576.2c-53.2,56.8-105.9,114-158.7,171.1c-14.5,14.6-26.3,34.1-46.9,40.8c-37.8,14.3-75.7,28.4-113.4,42.9c12-39.1,22.5-78.5,34.3-117.7c2.2-8.8,6.7-16.8,13-23.2c53.4-56.6,105.7-114.2,159-171c17.5-18.8,33.6-42.4,59.5-49.8c31.3-9.8,68.2,12,74.2,44.4C851.2,536.6,839.8,559.8,824.1,576.2z"/></g>
</svg>