<?xml version="1.0" encoding="utf-8"?>
<!-- Svg Vector Icons : http://www.onlinewebfonts.com/icon -->
<!DOCTYPE svg PUBLIC "-//W3C//DTD SVG 1.1//EN" "http://www.w3.org/Graphics/SVG/1.1/DTD/svg11.dtd">
<svg version="1.1" xmlns="http://www.w3.org/2000/svg" xmlns:xlink="http://www.w3.org/1999/xlink" x="0px" y="0px"
    viewBox="0 0 1000 1000" 
    enable-background="new 0 0 1000 1000" 
    fill="#06a58a"
    xml:space="preserve">
    <metadata> Svg Vector Icons : http://www.onlinewebfonts.com/icon </metadata>
    <g>
        <path
            d="M129.1,130.2c158.7-158.7,416.1-158.7,574.8,0c158.7,158.7,158.7,416.1,0,574.8c-158.7,158.7-416.1,158.7-574.8,0C-29.7,546.3-29.7,289,129.1,130.2z" />
        <path
            d="M242.4,243.7c96.1-96.1,251.9-96.1,348,0c96.1,96.1,96.1,251.9,0,348c-96.1,96.1-251.9,96.1-348,0C146.4,495.6,146.4,339.8,242.4,243.7z" />
        <path
            d="M573.3,572.1c31.4-31.4,82.3-31.4,113.7,0l279.4,279.4c31.4,31.4,31.4,82.3,0,113.7s-82.3,31.4-113.7,0L573.3,685.9C541.9,654.5,541.9,603.5,573.3,572.1z" />
    </g>
</svg>