<?xml version="1.0" encoding="utf-8"?>
<!-- Svg Vector Icons : http://www.onlinewebfonts.com/icon -->
<!DOCTYPE svg PUBLIC "-//W3C//DTD SVG 1.1//EN" "http://www.w3.org/Graphics/SVG/1.1/DTD/svg11.dtd">
<svg version="1.1" xmlns="http://www.w3.org/2000/svg" xmlns:xlink="http://www.w3.org/1999/xlink" x="0px" y="0px" viewBox="0 0 1000 1000" enable-background="new 0 0 1000 1000" xml:space="preserve">
<metadata> Svg Vector Icons : http://www.onlinewebfonts.com/icon </metadata>
<g><path d="M978.1,898.4L806.1,726.4c-15.8-15.8-41.5-15.8-57.4,0l0,0l-11.2-11.2c-0.6-0.6-1.4-0.8-2-1.3c71.7-75.5,116.1-177.2,116.1-289.4c0-232-188.8-420.8-420.8-420.8C198.8,3.7,10,192.4,10,424.5c0,232,188.8,420.8,420.8,420.8c105.7,0,202.2-39.5,276.2-104.1c0.7,0.9,1,1.9,1.8,2.7L720,755c-15.8,15.8-15.8,41.5,0,57.4l172.1,172.1c15.8,15.8,41.5,15.8,57.4,0l28.7-28.7C994,939.9,994,914.3,978.1,898.4z M430.8,784.4c-198.5,0-360-161.5-360-360c0-198.5,161.5-360,360-360s360,161.5,360,360C790.8,622.9,629.3,784.4,430.8,784.4z"/></g>
</svg>