<?xml version="1.0" encoding="utf-8"?>
<!-- Svg Vector Icons : http://www.onlinewebfonts.com/icon -->
<!DOCTYPE svg PUBLIC "-//W3C//DTD SVG 1.1//EN" "http://www.w3.org/Graphics/SVG/1.1/DTD/svg11.dtd">
<svg version="1.1" xmlns="http://www.w3.org/2000/svg" xmlns:xlink="http://www.w3.org/1999/xlink" x="0px" y="0px" viewBox="0 0 1000 1000" enable-background="new 0 0 1000 1000" xml:space="preserve">
<metadata> Svg Vector Icons : http://www.onlinewebfonts.com/icon </metadata>
<g><path d="M785.8,540.8V132.5H500v725.4c50.6-26.8,95.9-55.9,135.9-87.4C735.8,692.3,785.8,615.7,785.8,540.8L785.8,540.8z M908.3,50.8v490c0,36.6-7.1,72.9-21.4,108.8c-14.2,35.9-31.9,67.8-52.9,95.7c-21.1,27.9-46.2,55-75.3,81.4c-29.1,26.4-56,48.3-80.7,65.7c-24.7,17.4-50.4,33.9-77.2,49.4c-26.8,15.5-45.8,26.1-57.1,31.6c-11.3,5.5-20.3,9.8-27.1,12.8c-5.1,2.5-10.6,3.8-16.6,3.8c-6,0-11.5-1.3-16.6-3.8c-6.8-3-15.9-7.2-27.1-12.8c-11.3-5.5-30.3-16.1-57.1-31.6c-26.8-15.5-52.5-32-77.2-49.4c-24.7-17.4-51.6-39.3-80.7-65.7c-29.1-26.4-54.2-53.5-75.3-81.4c-21.1-27.9-38.7-59.8-52.9-95.7c-14.2-35.9-21.4-72.2-21.4-108.8v-490c0-11.1,4-20.6,12.1-28.7C111.9,14,121.4,10,132.5,10h735c11.1,0,20.6,4,28.7,12.1C904.3,30.2,908.3,39.8,908.3,50.8L908.3,50.8z"/></g>
</svg>