<?xml version="1.0" encoding="utf-8"?>
<!-- Svg Vector Icons : http://www.onlinewebfonts.com/icon -->
<!DOCTYPE svg PUBLIC "-//W3C//DTD SVG 1.1//EN" "http://www.w3.org/Graphics/SVG/1.1/DTD/svg11.dtd">
<svg version="1.1" xmlns="http://www.w3.org/2000/svg" xmlns:xlink="http://www.w3.org/1999/xlink" x="0px" y="0px" viewBox="0 0 1000 1000" enable-background="new 0 0 1000 1000" xml:space="preserve">
<metadata> Svg Vector Icons : http://www.onlinewebfonts.com/icon </metadata>
<g><path d="M990,500c0-270.6-219.4-490-490-490C229.4,10,10,229.4,10,500c0,142.7,61,271,158.3,360.6c8.3,10.7,20.5,20.8,36,30.1C286.5,953,388.9,990,500,990c116.8,0,224-40.9,308.2-109.1c6-4.4,11.3-8.9,15.9-13.5C925.8,777.6,990,646.3,990,500z M55.9,500C55.9,254.7,254.8,55.9,500,55.9c245.3,0,444.1,198.8,444.1,444.1c0,108.3-38.8,207.5-103.2,284.6c-13.7-70.3-67.3-70.6-139.4-85.5c-75.9-15.8-143.5-18.7-116.3-120.1c36.6-26.8,44.9-81.6,89.9-99.7c16.9-21.9,12.7-57.7,0-73.2c-12.7-15.6-20.8-5.9-23.6-16.6c-2.6-56.7,19.1-139.9-19.8-166.7c-6.4-4-12.5-5.3-19.2-5.3c-6.8,0-14.6,1.3-21.9,1.3c-4.9,0-10.6-0.8-15.1-2.6c-21.9-8.1-23.1-37-47.2-39.7c-6.4,0-13,0-20,0c-33.2,22.4-73.1,18.5-107.6,28.3c-1.5,0.4-3.6,0.8-4.9,1.5c-20.4,6.4-32.7,18.5-40.8,34.2c-10.9,21.7-13.2,51.1-13.2,84c-0.2,19.3,0.4,40.3,0.4,61.6c-17.2,9.1-24.2,27.9-24.6,47.6c-0.4,11.3,1.1,23.4,4.5,33.3c5.5,18.3,22.5,23,36.5,40c16.4,20.2,27.8,47.6,42.1,62.7c5.7,5.3,11.2,9.1,18.5,10.6c0,22.1,0,43.8,0,65.7c-5.7,7.4-11.7,13.6-18.5,18.9c-61.9,52.1-188.1,29.6-228.7,107.3c-5.1,10.1-7.4,13.4-9,16.7C96.2,711,55.9,610.2,55.9,500z"/></g>
</svg>