<?xml version="1.0" encoding="utf-8"?>
<!-- Svg Vector Icons : http://www.onlinewebfonts.com/icon -->
<!DOCTYPE svg PUBLIC "-//W3C//DTD SVG 1.1//EN" "http://www.w3.org/Graphics/SVG/1.1/DTD/svg11.dtd">
<svg version="1.1" xmlns="http://www.w3.org/2000/svg" xmlns:xlink="http://www.w3.org/1999/xlink" x="0px" y="0px" viewBox="0 0 1000 1000" enable-background="new 0 0 1000 1000" xml:space="preserve">
<metadata> Svg Vector Icons : http://www.onlinewebfonts.com/icon </metadata>
<g><g transform="translate(0.000000,511.000000) scale(0.100000,-0.100000)"><path d="M1783.1,5000.4c-35.3-8.8-86-26.5-110.2-39.7c-24.3-13.2-352.8-335.1-732-714.4C361,3662,250.7,3543,230.9,3468c-50.7-191.8-55.1-185.2,886.3-1131.1l864.3-864.3l-875.3-877.5c-945.9-948.1-926-921.6-888.5-1122.3c11-72.8,108-178.6,745.2-815.8c637.2-637.2,743-734.2,813.6-745.2c202.8-37.5,176.4-57.3,1126.7,888.5l875.3,875.3L4193-736.6c227.1-224.9,456.4-436.5,511.5-471.8c55.1-33.1,156.5-114.6,229.3-183l127.9-123.5l-15.4,77.2c-26.5,121.3-145.5,438.7-328.5,875.3c-92.6,218.3-167.6,410.1-167.6,421.1c0,35.3-577.7,601.9-635,624c-83.8,33.1-253.6,22.1-313.1-15.4c-30.9-19.8-434.4-414.5-899.6-877.5l-842.3-840L1459-849.1l-403.5,403.5l851.1,853.3c469.6,471.8,864.3,879.7,879.7,906.2c30.9,64,33.1,213.9,4.4,293.3c-13.2,30.9-405.7,441-877.5,910.6L1059.9,3371l394.7,396.9l394.7,394.7l848.9-846.7c467.4-465.2,873.1-857.7,901.8-873.1c88.2-44.1,249.2-37.5,335.1,17.6c41.9,24.3,447.6,418.9,901.8,875.3l826.8,826.8l401.3-401.3l403.5-403.5l-859.9-859.9c-474-474-859.9-873.1-859.9-886.4c0-13.2,66.1,13.2,149.9,57.3c143.3,77.2,154.3,79.4,379.2,79.4c196.2,0,249.1-8.8,348.4-52.9l119.1-52.9l749.6,747.4c410.1,410.1,762.9,773.9,780.5,807c37.5,70.6,41.9,242.5,6.6,310.9c-35.3,70.6-1386.9,1424.3-1461.8,1461.8c-75,41.9-231.5,44.1-304.3,8.8c-26.5-15.4-434.4-410.1-904-877.5l-855.5-853.3l-864.3,864.3c-641.6,639.4-884.1,866.5-932.6,877.5c-35.3,8.8-75,17.6-88.2,19.8C1860.3,5011.4,1820.6,5009.2,1783.1,5000.4z"/><path d="M6710.9,1499.1c-156.5-156.5-165.4-207.3-167.6-1195c-2.2-864.3-15.4-1040.7-83.8-1164.1c-26.4-48.5-30.9-39.7-119.1,143.3c-48.5,105.8-180.8,436.5-291,734.2C5939.2,315.1,5809.1,637,5762.8,734c-227.1,474-533.6,586.5-762.9,284.4c-61.7-79.4-63.9-92.6-61.7-315.3c2.2-280,52.9-447.6,344-1137.7c403.5-950.3,469.6-1353.8,291-1726.4c-63.9-130.1-251.3-335.1-306.4-335.1c-75,0-235.9,141.1-460.8,405.7c-359.4,423.3-489.5,509.3-773.9,509.3c-390.3,0-496.1-180.8-321.9-553.4c141.1-302,344-546.8,630.6-758.4c218.3-160.9,330.7-282.2,738.6-793.7c544.6-681.3,773.9-870.9,1256.8-1025.2c229.3-75,679.1-101.4,934.9-55.1c608.5,108,1173,493.9,1371.4,941.5c70.5,156.5,110.2,326.3,152.1,635c110.2,811.4,145.5,906.2,617.4,1675.7c262.4,427.7,355,683.5,379.2,1051.7c15.4,251.3-6.6,302.1-143.3,343.9c-121.3,37.5-191.8,33.1-288.8-17.6c-138.9-70.6-253.6-229.3-480.7-672.5c-165.4-319.7-242.5-443.2-330.7-533.6c-66.1-68.3-132.3-116.9-160.9-116.9c-41.9,0-44.1,8.8-33.1,83.8c39.7,222.7,110.2,474.1,251.3,893c176.4,520.3,240.3,791.5,260.2,1089.2c13.2,196.2,11,209.5-39.7,264.6c-90.4,97-242.5,183-326.3,183c-240.3,0-385.9-266.8-608.5-1106.8C7756-560.2,7670-809.4,7590.7-935c-92.6-143.3-121.3-147.7-149.9-22.1c-48.5,202.8-70.5,465.2-90.4,1113.4c-22.1,714.4-44.1,932.7-110.2,1197.2c-24.3,92.6-44.1,172-44.1,176.4c0,19.8-163.1,52.9-271.2,52.9C6803.5,1582.9,6788.1,1576.3,6710.9,1499.1z"/></g></g>
</svg>