<svg xmlns="http://www.w3.org/2000/svg" xmlns:xlink="http://www.w3.org/1999/xlink" x="0" y="0" enable-background="new 0 0 1000 1000" version="1.1" viewBox="0 0 1000 1000" xml:space="preserve"><metadata>Svg Vector Icons : http://www.onlinewebfonts.com/icon</metadata><g><path d="M238.8,336.6h522.4v312.2H238.8V336.6z"/><path d="M500,10C229.4,10,10,229.4,10,500s219.4,490,490,490c270.6,0,490-219.4,490-490S770.6,10,500,10z M209.8,320.2c0-11.8,9.6-21.4,21.4-21.4h537.5c11.8,0,21.4,9.6,21.4,21.4v363.5H209.8L209.8,320.2L209.8,320.2z M780.4,701.2H219.6c-48.1-1-75.5-17-75.5-17h299.3l4.7,4.7h103.8l4.7-4.7h299.3C855.9,684.2,828.5,700.2,780.4,701.2L780.4,701.2z"/></g></svg>