<?xml version="1.0" encoding="utf-8"?>
<!-- Svg Vector Icons : http://www.onlinewebfonts.com/icon -->
<!DOCTYPE svg PUBLIC "-//W3C//DTD SVG 1.1//EN" "http://www.w3.org/Graphics/SVG/1.1/DTD/svg11.dtd">
<svg version="1.1" xmlns="http://www.w3.org/2000/svg" xmlns:xlink="http://www.w3.org/1999/xlink" x="0px" y="0px" viewBox="0 0 1000 1000" enable-background="new 0 0 1000 1000" xml:space="preserve">
<metadata> Svg Vector Icons : http://www.onlinewebfonts.com/icon </metadata>
<g><path d="M273.1,639.9l-64.1-241.3l0.3-1.1h-35.9l0.3,1.1l-64.1,241.3L45.3,397.6H10l77.5,291.8h44.4l59.5-224.2l59.5,224.2h44.4l77.5-291.8h-35.3L273.1,639.9z"/><path d="M867,398.7c-39.1,0-73.9,20.8-96.4,52.9V309.9h-34.2v380.2h34.2v-53.5c22.6,32.2,57.3,52.9,96.4,52.9c67.8,0,123-62.4,123-139.1v-12.7C990,461.1,934.8,398.7,867,398.7z M955.8,550.5c0,57.8-39.9,104.9-88.9,104.9c-49,0-88.9-47.1-88.9-104.9v-12.7c0-57.8,39.9-104.9,88.9-104.9c49,0,88.9,47.1,88.9,104.9V550.5z"/><path d="M535.8,398.7c-76.7,0-139.1,62.4-139.1,139.1v12.7c0,76.7,62.4,139.1,139.1,139.1c63.2,0,116.4-42.4,133.2-100.2l-33.8-6c-13.8,41.8-53.1,72-99.4,72c-56.4,0-102.3-44.7-104.7-100.5h209.4h34.2c0-1.5,0.2-2.9,0.2-4.4v-12.7c0-5.8-0.5-11.5-1.2-17.1C665.3,452.1,606.7,398.7,535.8,398.7z M432.4,520.7c8.2-49.7,51.4-87.8,103.4-87.8c52,0,95.2,38.1,103.4,87.8H432.4z"/></g>
</svg>