<?xml version="1.0" encoding="utf-8"?>
<!-- Svg Vector Icons : http://www.onlinewebfonts.com/icon -->
<!DOCTYPE svg PUBLIC "-//W3C//DTD SVG 1.1//EN" "http://www.w3.org/Graphics/SVG/1.1/DTD/svg11.dtd">
<svg version="1.1" xmlns="http://www.w3.org/2000/svg" xmlns:xlink="http://www.w3.org/1999/xlink" x="0px" y="0px" viewBox="0 0 1000 1000" enable-background="new 0 0 1000 1000" xml:space="preserve">
<metadata> Svg Vector Icons : http://www.onlinewebfonts.com/icon </metadata>
<g><g transform="translate(0.000000,512.000000) scale(0.100000,-0.100000)"><path d="M4689.7,5016.6c-759.2-65.2-1353.5-232-1968.9-554.1c-893.4-465.9-1652.6-1236.6-2105-2137.6C264.9,1625.1,100,923.4,100,120.1c0-801.4,164.9-1506.9,513.8-2202.8c400.7-795.6,1071.7-1522.2,1842.4-1991.9c1608.5-981.6,3671.4-937.5,5249.1,111.2C9743.3-2608,10471.8,18.5,9423.1,2229c-245.4,511.9-540.6,927.9-964.3,1353.5c-784.1,784.1-1704.4,1240.4-2810.5,1397.6C5448.9,5008.9,4854.5,5031.9,4689.7,5016.6z M3537.5,954.1c59.4-30.7,78.6-63.3,78.6-138c0-47.9-439-1372.7-485-1460.9c-11.5-24.9-51.8-57.5-84.4-72.9c-53.7-21.1-72.9-21.1-128.4,1.9c-36.4,15.3-74.8,44.1-84.4,63.3c-11.5,19.2-90.1,243.5-178.3,500.4c-105.4,306.7-164.9,456.3-174.5,437.1c-7.7-15.3-84.4-226.2-166.8-471.6c-149.5-440.9-182.1-506.1-266.5-538.7c-55.6-21.1-164.9,21.1-195.6,76.7c-11.5,23-128.5,356.6-260.7,743.9c-251.1,740-258.8,780.3-174.5,839.7c57.5,40.3,159.1,36.4,201.3-5.7c21.1-21.1,101.6-233.9,184-475.5C1982.6-88.8,1998-127.2,2013.3-90.8c5.8,15.3,84.4,245.4,174.5,508.1c172.5,506.1,195.6,546.4,302.9,546.4c105.4,0,134.2-49.8,312.5-575.1c93.9-274.1,176.4-490.8,182.1-483.1c7.7,7.7,88.2,232,178.3,500.4c92,268.4,176.4,500.4,187.9,515.7c23,24.9,82.4,57.5,116.9,59.4C3476.1,982.9,3508.7,969.4,3537.5,954.1z M6085.3,921.5c23-23,42.2-63.3,42.2-92c0-28.8-107.4-370-239.6-759.2C5625.2-700.4,5608-733,5483.4-729.2c-117,3.8-143.8,49.8-314.4,557.9c-88.2,255-164.9,464-172.6,464c-5.7,0-84.4-210.9-172.5-469.7c-174.5-510-199.4-554-318.2-554c-122.7,0-140,34.5-400.7,805.2c-132.3,391.1-239.6,728.5-239.6,749.6c0,21.1,17.3,61.3,40.3,90.1c51.8,67.1,164.9,70.9,222.4,7.7c21.1-24.9,115-270.3,209-546.4l168.7-502.3l72.9,205.1c40.3,113.1,116.9,335.5,170.6,496.6c51.8,161,113.1,312.5,134.2,339.3c53.7,69,170.6,69,224.3,3.8c19.2-26.8,113.1-270.3,205.2-542.6c92-272.2,170.6-496.5,172.5-500.4c1.9-1.9,76.7,209,162.9,469.7c86.3,260.7,170.6,502.3,186,534.9C5882.1,986.7,5993.3,1004,6085.3,921.5z M6631.7,929.2c19.2-19.2,107.4-255,199.4-523.4c90.1-268.4,170.6-492.7,178.3-500.4c5.7-7.7,86.3,207.1,180.2,479.3c95.9,278,185.9,511.9,208.9,536.8c46,49.8,138,55.6,197.5,13.4c28.8-19.2,92-176.4,218.6-548.3l180.2-521.5l174.5,523.4c113.1,335.5,187.9,533,210.9,548.3c42.2,30.7,130.4,34.5,180.2,7.7c19.2-9.6,46-44.1,59.4-76.7c23-53.7,7.7-107.4-220.5-782.2c-264.6-780.3-281.8-816.7-402.6-816.7c-118.9,0-147.6,49.8-322.1,557.9c-86.3,255-163,467.8-168.7,473.5c-5.8,5.8-76.7-189.8-161-435.2c-82.5-245.4-163-469.7-176.4-498.5c-15.3-30.7-57.5-67.1-93.9-82.4c-55.6-23-74.8-23-126.6-1.9c-34.5,15.4-74.7,47.9-88.2,72.9c-44.1,86.3-483.1,1420.6-483.1,1470.4C6376.8,942.6,6555,1013.5,6631.7,929.2z"/></g></g>
</svg>