<?xml version="1.0" encoding="utf-8"?>
<!-- Svg Vector Icons : http://www.onlinewebfonts.com/icon -->
<!DOCTYPE svg PUBLIC "-//W3C//DTD SVG 1.1//EN" "http://www.w3.org/Graphics/SVG/1.1/DTD/svg11.dtd">
<svg version="1.1" xmlns="http://www.w3.org/2000/svg" xmlns:xlink="http://www.w3.org/1999/xlink" x="0px" y="0px" viewBox="0 0 1000 1000" enable-background="new 0 0 1000 1000" xml:space="preserve">
<metadata> Svg Vector Icons : http://www.onlinewebfonts.com/icon </metadata>
<g><g transform="translate(0.000000,512.000000) scale(0.100000,-0.100000)"><path d="M4884,4912.6c-128.4-130.4-404.5-356.6-584.7-477.3c-331.7-222.4-910.6-454.3-1382.2-554c-602-126.5-1343.9-157.2-1846.1-76.7l-78.6,13.4V1638.3c0-1397.5,7.7-2246.8,21.1-2365.7c95.8-891.4,657.5-1771.4,1665.9-2611c563.6-467.8,1340-964.3,2047.4-1309.4L4999-4780l274.1,132.3c354.6,174.4,797.5,425.6,1144.5,651.8c1466.6,960.4,2300.5,1957.3,2536.3,3034.7c38.3,178.3,40.3,233.9,46,2480.7l7.7,2298.6l-76.7-13.4c-680.6-107.4-1627.6-23-2333,209c-567.5,186-1010.3,448.6-1418.6,839.7c-95.9,92-178.3,166.8-184,166.8C4991.4,5020,4941.5,4972.1,4884,4912.6z M5119.8,4492.8c557.9-498.4,1357.3-845.4,2256.4-975.8c335.5-49.8,761.1-74.8,1050.6-61.4l272.2,11.5V1488.8c0-1100.4-9.6-2062.7-19.2-2166.3c-63.3-649.9-391.1-1271-1014.1-1917.1C7079.1-3204.2,6183.8-3840.6,5254-4312.2l-253-128.5l-207,103.5c-506.1,251.1-1113.8,625-1589.2,979.6c-672.9,500.4-1202,1056.3-1514.5,1585.4c-168.7,283.7-262.6,517.6-337.4,839.7c-40.3,170.6-42.2,207-47.9,2287l-7.7,2112.6l274.1-11.5c960.4-42.2,2030.2,205.1,2751,634.6c201.3,120.8,521.4,356.6,607.7,448.6c32.6,32.6,59.4,59.4,65.2,59.4C4999,4598.2,5054.6,4550.3,5119.8,4492.8z"/><path d="M4701.9,2859.5C3521,2706.1,2593.1,1799.3,2418.7,628c-38.3-268.4-26.8-672.9,28.8-918.3c210.9-935.5,874.2-1667.8,1769.4-1953.5c270.3-86.3,485-118.8,784.1-118.8c701.6-1.9,1313.2,241.5,1815.4,718.9c414.1,396.8,684.4,895.3,782.2,1449.3c63.3,362.3,34.5,839.7-72.9,1198.2C7242,1960.4,6396.6,2694.6,5401.6,2844.1C5236.8,2871,4845.7,2878.6,4701.9,2859.5z M4611.8,2464.6c-189.8-216.6-375.7-481.2-506.1-717c-95.9-176.4-111.2-195.5-143.8-176.4c-103.5,55.6-479.3,458.2-475.4,509.9c1.9,44.1,383.4,285.6,588.5,371.9c168.7,70.9,519.5,168.7,613.5,170.6h63.3L4611.8,2464.6z M5670,2552.7c184-51.8,377.7-134.2,523.4-220.5c141.9-82.4,339.3-224.3,339.3-243.5c0-59.4-368.1-460.1-475.4-517.6c-32.6-17.2-42.2-11.5-63.3,40.3c-74.8,178.3-393,648-582.8,858.8c-151.5,166.8-149.5,161-19.2,143.8C5455.3,2606.4,5579.9,2579.6,5670,2552.7z M4903.2,1835.8v-594.3l-109.3,13.4c-232,26.8-580.9,139.9-580.9,185.9c0,32.6,151.4,299.1,272.2,477.4c101.6,153.4,391.1,513.8,410.2,513.8C4899.4,2432,4903.2,2163.6,4903.2,1835.8z M5328.8,2207.7c143.8-176.4,329.7-454.3,423.7-634.5l72.8-138l-103.5-47.9c-115-53.7-333.6-113.1-486.9-134.2l-101.6-13.4V1830v588.5l40.3-36.4C5196.5,2363,5265.5,2282.4,5328.8,2207.7z M6948.7,1657.5c118.9-159.1,241.5-394.9,312.5-596.2c67.1-187.9,134.2-504.2,134.2-625v-74.8l-531,3.8l-532.9,5.7l-5.8,76.7c-9.6,174.5-69,465.8-132.3,667.1l-67.1,212.8l72.8,57.5c136.1,105.4,364.2,335.5,440.9,442.8l74.8,105.4l74.8-80.5C6829.8,1807,6902.7,1718.8,6948.7,1657.5z M3542.1,1638.3c69-72.9,176.4-170.6,239.6-216.6c63.3-47.9,115-92,115-99.7c-1.9-5.8-28.8-97.8-61.4-203.2c-69-218.5-111.2-417.9-130.4-617.3l-13.4-139.9h-534.9c-416,0-534.9,5.8-534.9,24.9c0,84.4,65.2,431.3,107.4,565.5c95.9,314.4,276.1,640.3,479.3,864.6l92,103.5l59.4-74.8C3390.6,1805.1,3473.1,1711.2,3542.1,1638.3z M4351.1,1122.6c103.5-36.4,268.4-76.7,370-90.1l182.1-24.9V685.5v-324h-490.8h-490.8l13.4,130.4c17.3,170.6,57.5,362.3,116.9,557.9c40.3,130.4,53.7,157.2,80.5,147.6C4149.8,1191.6,4249.5,1157.1,4351.1,1122.6z M5980.6,1024.9c59.4-186,111.2-454.3,111.2-579v-84.4h-479.3h-479.3v324v325.9l111.2,11.5c164.9,19.2,400.7,78.6,531,132.3c63.3,26.8,122.7,46,134.2,42.2C5919.2,1195.5,5951.8,1116.9,5980.6,1024.9z M3705,3.1c19.2-184,63.3-414.1,109.3-571.3l38.3-132.3l-72.9-57.5c-124.6-95.9-364.2-345.1-448.6-471.6c-93.9-138-86.3-139.9-249.2,76.7c-243.5,327.8-396.8,734.2-450.5,1184.7l-11.5,99.7h534.9h536.8L3705,3.1z M4903.2-106.2c0-260.7,0-260.7-124.6-260.7c-107.4,0-325.9-53.7-513.8-124.6c-97.8-38.3-184-69-193.6-72.9c-32.6-7.7-145.7,504.2-145.7,665.2c0,26.8,49.8,30.7,488.8,30.7h488.9V-106.2z M6091.8,47.1c0-176.4-105.4-634.5-141.9-617.3c-295.2,128.4-546.4,201.3-695.9,203.2c-120.8,0-120.8,0-120.8,260.7v237.7h479.3h479.3V47.1z M7387.7-14.2c-36.4-406.4-224.3-858.9-500.3-1213.5l-109.3-138l-84.3,124.6c-101.6,149.5-299.1,364.2-427.5,462l-92,70.9l42.2,147.6c53.7,185.9,105.4,477.3,105.4,600v92h538.7h540.6L7387.7-14.2z M4899.4-1298.6l-5.7-688.2l-120.8,143.8c-166.8,199.4-385.3,529.1-498.4,757.2c-157.2,308.7-155.3,283.7-19.2,345.1c205.1,92,590.5,180.2,634.5,143.8C4897.4-602.7,4901.3-919,4899.4-1298.6z M5497.5-644.9c141.9-36.4,383.4-141.9,383.4-166.8c0-40.2-224.3-460.1-339.3-638.4c-109.3-166.8-383.4-527.2-402.6-527.2c-1.9,0-5.8,312.5-5.8,695.9v695.9l122.7-13.4C5323-608.5,5432.3-627.6,5497.5-644.9z M4048.2-1162.5c126.5-255,337.4-577,521.4-799.4l128.4-155.3l-93.9,15.3c-356.6,51.8-945.1,329.7-1136.8,534.9c-40.3,44.1-42.2,49.8-13.4,103.5c72.9,139.9,419.8,521.4,473.5,521.4C3933.2-942.1,3988.8-1041.7,4048.2-1162.5z M6273.9-1099.3c147.6-149.5,316.3-375.7,316.3-427.5c0-28.8-255-220.4-410.2-306.7c-224.3-124.6-511.8-226.2-759.2-268.4c-97.8-17.2-103.5-28.8,82.4,197.5c161,199.4,366.2,521.4,479.3,755.3c55.6,113.1,107.4,207,117,207C6109-942.1,6187.6-1013,6273.9-1099.3z"/></g></g>
</svg>