<?xml version="1.0" encoding="utf-8"?>
<!-- Svg Vector Icons : http://www.onlinewebfonts.com/icon -->
<!DOCTYPE svg PUBLIC "-//W3C//DTD SVG 1.1//EN" "http://www.w3.org/Graphics/SVG/1.1/DTD/svg11.dtd">
<svg version="1.1" xmlns="http://www.w3.org/2000/svg" xmlns:xlink="http://www.w3.org/1999/xlink" x="0px" y="0px" viewBox="0 0 1000 1000" enable-background="new 0 0 1000 1000" xml:space="preserve">
<metadata> Svg Vector Icons : http://www.onlinewebfonts.com/icon </metadata>
<g><g transform="translate(0.000000,511.000000) scale(0.100000,-0.100000)"><path d="M3556.1,5012.2c-779.9-64.8-1582.1-411.2-2181.7-942C341.2,3154.6-108.5,1764.9,191.3,417.8c463.9-2084.5,2568.6-3368.8,4647-2838c218.8,56.7,512.5,166.1,713.1,265.4l156,79l441.6-451.7c243.1-247.1,808.3-824.5,1255.9-1280.3c573.3-587.5,842.7-848.8,911.6-887.3c277.5-149.9,605.7-149.9,881.2,0c105.3,56.7,455.8,405.1,557.1,555c109.4,160,154,322.1,143.8,544.9c-6.1,162.1-16.2,212.7-68.9,324.1c-34.4,72.9-93.2,168.1-129.7,208.6c-34.4,40.5-638.1,563.2-1339,1162.8C7660.2-1302,7086.9-805.7,7086.9-795.6c0,8.1,50.6,103.3,111.4,212.7c745.5,1339,589.5,3028.5-393,4227.7c-542.9,662.4-1351.2,1148.6-2177.6,1306.6C4238.7,5026.4,3938.9,5044.6,3556.1,5012.2z M4210.4,3879.8C5531.1,3717.7,6540,2577.3,6540,1246.4C6540-40,5604.1-1156.2,4342-1375c-235-42.5-680.6-42.5-913.6-2c-546.9,95.2-1053.4,366.7-1442.3,767.7c-216.8,224.9-340.3,397.1-472,654.3c-210.7,413.2-293.7,800.2-275.5,1300.5c8.1,265.4,20.3,354.5,70.9,555.1c68.9,261.3,224.9,613.8,366.7,820.4C2241.3,3553.6,3219.8,4001.3,4210.4,3879.8z"/><path d="M3722.2,3144.5c-131.7-50.6-237-151.9-291.7-285.6c-24.3-56.7-30.4-180.3-30.4-597.6v-526.7l-553-6.1l-555.1-6.1l-99.3-60.8c-137.7-87.1-216.7-218.8-226.9-384.9c-10.1-158,20.3-255.3,113.4-358.6c147.9-162.1,168.1-168.1,779.9-174.2l540.9-6.1V229.4c0-561.1,10.1-619.9,115.5-743.5c188.4-220.8,544.9-226.9,733.3-12.1c127.6,145.9,131.7,170.1,139.8,743.5l8.1,520.6l528.7,6.1c498.3,6.1,534.8,8.1,611.8,50.6c218.8,117.5,318,356.5,251.2,603.7c-28.3,107.4-200.5,275.5-314,309.9c-56.7,16.2-247.1,24.3-583.4,24.3h-498.3v441.6c0,241.1-6.1,488.2-14.2,546.9c-16.2,147.9-111.4,301.8-233,374.8C4032.1,3166.7,3839.7,3189,3722.2,3144.5z"/></g></g>
</svg>